<svg data-name="Слой 1" xmlns="http://www.w3.org/2000/svg" viewBox="0 0 454.05 188.36"><defs><clipPath id="a"><path fill="none" d="M0 0h454.05v188.36H0z"/></clipPath></defs><g clip-path="url(#a)"><path d="M417 19.56A52.88 52.88 0 01432.39 4c3.37-2.24 5.51-2.24 7.3 1.86 2.86 6.53 5.11 13.06 3.06 20.28a7.58 7.58 0 001.42 7c1.89 2.53 3.57 5.22 5.32 7.86 4.28 6.45 6 13.25 3.13 20.83a18.27 18.27 0 00-.69 10.32 28.18 28.18 0 010 10c-.87 5.43-3.68 9.24-9.15 10.68a19.51 19.51 0 00-10.87 6.67 4.43 4.43 0 01-2.9 1.81c-4 .54-14.15-8.47-14.14-12.55 0-.67 0-1.33.05-2 .22-12-.5-13.22-11.55-18a15.15 15.15 0 01-6.13-4.17c-2.19-2.76-4.86-2.51-7.65-1.33s-4.69 3-4.32 6.48a216.23 216.23 0 011.18 24.43 5.19 5.19 0 00.79 2.83c10.49 15.11 14.44 32.88 19.67 50 4 13.06 11.51 20.15 25 21.11a57.51 57.51 0 016.4 1c6 1.12 9.67 4.93 11.45 10.62 2.22 7.07 1.11 8.58-6.25 8.63s-14.66 0-22 .06c-3 0-5.49-.54-7.71-2.73-3.26-3.21-7.54-4.86-11.64-6.68-4.5-2-8.69-4.51-11.37-8.68-3.75-5.83-8.86-10.36-13.63-15.22-9.58-9.74-19.49-19.15-28.54-29.4-6.52-7.38-10.79-15.58-10.7-25.62 0-3.15-.79-4.47-4-2.88a8.32 8.32 0 01-3.34 1c-9.54.15-14.2 5.84-17.58 14.06-3 7.21-7.2 13.89-10.76 20.86a32.22 32.22 0 00-3.91 14.83c0 7.91 1.87 10.75 9.33 13.42 4.63 1.65 9.07 3.38 11.6 8 2.86 5.24 2 6.86-3.85 6.92-7.67.08-15.33 0-23 .06a6.44 6.44 0 01-6.44-3.7c-1.89-3.51-4.16-6.83-6.25-10.23-3.48-5.65-4.89-11.42-2.53-18.06 2-5.78 1.12-12 .27-17.84-1.27-8.76.11-16.58 5.84-23.43 1.87-2.23 2.11-3.46-1.34-4.11-14-2.63-27.24-7.57-40.06-13.72l-.46-.2c-10.82-4.15-12.9-3.22-15.94 7.67-2.64 9.46-5.39 18.91-7.45 28.5-2.28 10.6.38 20.85 3.79 30.86 1.32 3.89 5.28 3.72 8.32 4.61 6.65 1.95 12.38 4.76 15.28 11.64 2.26 5.35 2 6.07-3.69 6.12-5.83 0-11.68-.29-17.49.1-5.52.37-9.64-1.74-14.15-4.75-16.29-10.88-20.92-27.13-22.23-45.22-.81-11.23-6.73-20-13.92-28.12-1.4-1.58-2.67-2.23-4.69-.94-7.1 4.5-15.09 7-22.87 9.93-16.37 6.2-30.57 15.46-41.31 29.54a37.16 37.16 0 00-7.55 17.21c-.9 6 .8 8.6 6.64 10.32 6.47 1.91 9 5 9.77 11.57.31 2.76-.69 4.19-3.47 4.19q-13.74 0-27.49-.06c-2 0-3.33-1.21-4.54-2.69A29.75 29.75 0 0171.83 157 171.39 171.39 0 0175 122.27c1.27-7.09 4.62-12.91 11.36-16.09 20-9.44 30.48-27.13 39.91-45.78 1.9-3.76.22-4.33-3-4-9.79.88-18.18 5.22-26 10.73C87.06 74.2 78 82.53 68.95 90.95c-9.87 9.22-21.08 15.63-34.92 16.6C10.66 109.19-1.09 95.69.08 73.24a32.22 32.22 0 018.22-20.5c4-4.45 9-6.88 15.2-5.08 5.17 1.5 6.51 4.1 4.37 8.94-.87 2-2.21 3.72-3.24 5.61a47.83 47.83 0 00-3.37 6.66C17.69 78.9 22.49 86 33.09 86.94c11.25 1 20.39-3.74 28.87-10.38A162.8 162.8 0 0089.24 48.8c12.63-16.06 28.95-24.63 48.76-27.21 7.69-1 14.62-4.44 22-6.51 14.05-3.94 28.27-6.3 42.88-5.94a47.9 47.9 0 0019.82-3.61c16.51-6.73 33.78-6.7 51.1-3.22 13.55 2.73 26.94 6.12 40.38 9.3 7.61 1.8 15.94 1.15 23.7-.54 15-3.26 30-6.31 45.38-6.59a66.22 66.22 0 0129.18 5.71c6.47 3 6.48 3 4.53 9.35"/></g></svg>