<svg data-name="Слой 1" xmlns="http://www.w3.org/2000/svg" viewBox="0 0 367.6 512"><defs><clipPath id="a"><path fill="none" d="M0 0h367.6v512H0z"/></clipPath></defs><g clip-path="url(#a)"><path d="M79.59 0h2c3.57 1.86 5.71 5 7.55 8.42A83.1 83.1 0 0196 26.6c1.12 4.27 3.43 6.32 7.78 7.07 12.32 2.12 21.22 9.13 27.51 19.75A140.59 140.59 0 01141 74.25c7.5 19.44 13.23 39.48 20.22 59.09 3.34 9.36 3.47 9.24 13.48 9.34 11.9.12 11.06-1.86 11.24 11.33.06 4.18-1.26 6.29-5.67 6.08-1.37-.07-3.42-.69-3.94 1.14-.43 1.52 1.26 2.58 2.27 3.64 6.26 6.63 14.11 10.5 22.78 12.84 10 2.69 20.13 4.8 29.89 8.09 24.9 8.4 48 20.13 65.92 40 11 12.12 18.48 26.48 24.88 41.39 19.5 45.41 28.64 93.47 35.91 142 3.4 22.73 5.8 45.58 7.66 68.47.93 11.43 2.13 22.88 2 34.39h-175c-.62-2.44.39-4.61 1.22-6.76 3.56-9.26 10.87-14.08 20.1-16.22 3.65-.85 4.11-1.94 1.84-4.83a54.14 54.14 0 01-8.35-16.39c-8.58-25.37-11.89-51.85-16-78.11-3.16-20.05-7.87-39.46-18.26-57.15a114.67 114.67 0 00-29.38-33.63c-4.36-3.33-4.5-3.33-5.25 2.32-.5 3.78-.63 7.62-.86 11.43a490.9 490.9 0 00.91 74.8c1.78 19.42 2.49 38.81.8 58.29a398.28 398.28 0 01-11.82 66.2h-70a28.57 28.57 0 0122.27-23.44c6.74-1.32 13.27-.43 19.79 1.07 3.14.72 4.45.16 4.72-3.43a300.32 300.32 0 00-5-83.5c-6.59-31.8-12.8-63.67-16.1-96a93.9 93.9 0 00-11.94-37.09C65 258.44 59.54 246.8 53.39 235.55c-4.88-8.92-5.81-17.93-2.18-27.39 1.43-3.73 2.78-7.51 4.53-11.1 5-10.34 10.35-20.52 15.3-30.89 2.56-5.36 2-5.93-3.72-6.06-8.56-.18-8.57-.18-8.7-8.67v-3.5c-.07-3.63 1.34-5.64 5.33-5.35 2.65.2 5.33 0 8 0 3.63.07 4.68-1.52 3.79-5-3-12-14.6-21.9-27-23.41-11.76-1.44-23.25.23-34.72 2.27-3.41.61-5.29-.14-6.57-3.38C5.38 107.84 3 102.68.7 97.51c-1-2.16-1-4.05.49-6C17.88 69.8 36.06 49.77 60.9 37.07a8 8 0 004.66-5.94c1.58-7.5 3.42-14.94 6.66-21.95 1.7-3.68 3.66-7.12 7.37-9.18"/></g></svg>