<svg data-name="Layer 1" xmlns="http://www.w3.org/2000/svg" viewBox="0 0 55.48 59.95"><path fill="#FFF" d="M52.35 12.17h-7A7.75 7.75 0 0035.34.94c-3.61 2-6.17 6.11-7.6 9-1.43-2.9-4-7.06-7.6-9a7.74 7.74 0 00-10 11.23h-7A3.14 3.14 0 000 15.3v9.38a3.14 3.14 0 003.13 3.13H4v26.11a6 6 0 006 6h35.48a6 6 0 006-6v-26.1h.83a3.13 3.13 0 003.13-3.13V15.3a3.14 3.14 0 00-3.09-3.13zM36.48 3A5.352 5.352 0 0142 12.17H29.35C30.48 9.64 33 5 36.48 3zM11.75 5.21A5.35 5.35 0 0119 3c3.52 1.91 6 6.6 7.13 9.12H13.49a5.34 5.34 0 01-1.74-6.91zm14.79 22.61v13.67H6.36V27.82h20.18zM6.36 53.92v-10h20.18v13.63H10a3.63 3.63 0 01-3.64-3.63zm39.12 3.63H28.94V43.89h20.17v10a3.63 3.63 0 01-3.63 3.66zm3.63-16.07H28.94V27.82h20.17v13.67zm4-16.8a.73.73 0 01-.73.73H3.13a.73.73 0 01-.73-.73V15.3a.74.74 0 01.73-.73h49.22a.74.74 0 01.73.73v9.38z"/></svg>