<svg data-name="Layer 1" xmlns="http://www.w3.org/2000/svg" viewBox="0 0 100.5 18.09"><path d="M1.22 16.58A6.76 6.76 0 010 12.22V5.88a6.83 6.83 0 011.21-4.4Q2.43 0 5.36 0t4 1.32a5.5 5.5 0 011.14 3.76V6.6H6.64V4.84a4.33 4.33 0 00-.22-1.56 1 1 0 00-1.06-.54 1.09 1.09 0 00-1.1.58A3.9 3.9 0 004 4.91v8.27a3.67 3.67 0 00.28 1.6 1.1 1.1 0 001.09.55 1 1 0 001-.55 4.3 4.3 0 00.23-1.6v-1.85h3.9v1.52a5.79 5.79 0 01-1.17 3.85q-1.17 1.38-4 1.38t-4.11-1.5zM15.2.24h4.5L23 17.83h-3.62l-.6-3.71h-2.61l-.62 3.71h-3.73zm3.22 11.55l-.95-6.86-.95 6.86h1.9zm7.33-8.66h-2.69V.24h9.33v2.89h-2.67v14.7h-4V3.13zM39.53.24h6.92v1.82H42v5.82h3.59v1.74H42v6.45h4.5v1.76h-7V.24zm8.96 0h1.7l5.07 11.68V.24h2.07v17.59h-1.59l-5.14-12v12h-2.11V.24zm11.32 0h6.92v1.82H62.3v5.82h3.6v1.74h-3.6v6.45h4.48v1.76h-7V.24zm8.96 0h3.59a6 6 0 014 1.1 4.49 4.49 0 011.27 3.57q0 3.39-2.21 4.1l2.54 8.82h-2.4L73.2 9.57h-1.94v8.25h-2.49V.24zm3.44 7.58a3.4 3.4 0 002.3-.63 3 3 0 00.7-2.28A4.81 4.81 0 0075 3.2a1.64 1.64 0 00-.86-.91A4.17 4.17 0 0072.36 2h-1.1v5.82h.95zm8.6 8.71A7.68 7.68 0 0179.73 12V6.17a11 11 0 01.43-3.35 3.75 3.75 0 011.48-2 5.09 5.09 0 012.88-.73 4.53 4.53 0 013.56 1.24 5.78 5.78 0 011.09 3.89v.64h-2.34v-.54a9.45 9.45 0 00-.15-1.94 1.64 1.64 0 00-.65-1A2.55 2.55 0 0084.56 2a2.22 2.22 0 00-1.56.46 2.17 2.17 0 00-.65 1.25 12.08 12.08 0 00-.14 2.09v6.51a6.24 6.24 0 00.5 2.9 2 2 0 001.91.88 2 2 0 001.91-1 6.76 6.76 0 00.52-3.06v-1.17h-2.27V9.12h4.52v8.71h-1.56l-.24-2A3.14 3.14 0 0184.32 18a4 4 0 01-3.51-1.47zm13.47-4.91L90.42.24h2.32l2.73 8.49L98.16.24h2.34l-3.84 11.38v6.21h-2.38v-6.21z" fill="#111"/></svg>