<svg id="Слой_1" data-name="Слой 1" xmlns="http://www.w3.org/2000/svg" viewBox="0 0 172.26 57.07"><defs><clipPath id="clip-path"><path fill="none" d="M0 0h172.26v57.07H0z"/></clipPath><style>.cls-4{fill:#f06351}.cls-6{fill:#111}</style></defs><g clip-path="url(#clip-path)"><path d="M59.62 21.74a25.5 25.5 0 10-27.25 35.05c-.58-2.08-1.16-4.38-1.68-6.83a32.52 32.52 0 004.75 2.54s.12 2.15.28 4.55a25.35 25.35 0 005.28-.46 2 2 0 010-.76c.28-1.85 1.09-5.21 1.24-7.37a15.21 15.21 0 002.89-3.7l-.05.43c-.55 4.25-1.7 8.78-2.39 10a5.76 5.76 0 01-.83 1.15 25.52 25.52 0 0017.76-34.6m-1.47 3.77c-.43.43-1.34.72-1.49-.58s-.19-2.21-.19-2.21-1.92-3.41-2.64-3.45-5.83 3.45-7.15 4.94c-1.16 1.28-1.39 1.2-1.39 3.45 0 1.71.22 8.13.1 13.05l-8.11 2.16a64.41 64.41 0 01-7.77 1.78l-1-5.81h-.14L25.81 25.7s-3.81-1.44-5.18-1.82a3.72 3.72 0 00-4 .62 5.06 5.06 0 00-1.73 3.84 6.86 6.86 0 01.48 1.44c0 .48-1.2.43-2 .43s-.91-1.44-.29-3.12A23.49 23.49 0 0115 23.4a11.87 11.87 0 012-2.88s.14-.34 1.25-.24 7.25.43 7.25.43l.05-2.27a143.65 143.65 0 0120.16-1.33c0 .6 0 1.21-.06 1.82a22.56 22.56 0 018.11-2 .91.91 0 01.77.38c.34.43 2.4 3 2.64 3.36a27.82 27.82 0 011.82 3 6.23 6.23 0 01-.86 1.77" fill="#fdc305"/><path class="cls-4" d="M56.21 19.43c.47.6.88 1.12 1 1.28a27.79 27.79 0 011.82 3 6.24 6.24 0 01-.86 1.77c-.43.43-1.34.72-1.49-.58s-.19-2.21-.19-2.21-1.92-3.41-2.64-3.45-5.85 3.49-7.16 4.97c-1.16 1.28-1.39 1.2-1.39 3.45 0 1.5.17 6.62.13 11.18 1.8.21 4.45.71 5.24 1.87 0 0-.29-7.15 7.77-3.41 0 0 .29-9.74 11.42-7.25a43.57 43.57 0 00-13.65-10.62m-10.47-2.32A90.14 90.14 0 0044.33.65s-.14-1.29-.86-.24a14.19 14.19 0 00-1.2 3.94 70.36 70.36 0 00-12.76.33C28.69 1.95 27.3.75 26.63 1s-.72 3.31-.72 3.31l-.33 14.1a143.65 143.65 0 0120.16-1.33"/><path d="M45.15 44.76c.13-1.06.2-2.47.24-4l-8.11 2.16a64.47 64.47 0 01-7.77 1.77l1.1 5 .07.31a32.62 32.62 0 004.75 2.54 42.39 42.39 0 006.84-4.12v.06a15.21 15.21 0 002.89-3.7" fill="#e55645"/><path d="M31.86 14c0-.09 1 .68 1.4.92a1.07 1.07 0 01.61.59.56.56 0 01-.62.34 1.47 1.47 0 01-1-.26h1.23A8.23 8.23 0 0131.86 14m7.47.11s-1 1.27-1.09 1.33-.17.34.19.29a8 8 0 001.22-.28c.11-.06.07-.2-.12-.17s-.68 0-1 .11l.84-1.26s0-.12-.06 0m-3.11 6.06a2.31 2.31 0 001.09-1c.28-.66 0-.91-.44-1a2.44 2.44 0 00-1.74.34.57.57 0 00-.05 1 5 5 0 001.14.69"/><path class="cls-4" d="M35.79 21.44a2 2 0 01-.46.59 1.73 1.73 0 01-1 .39 2.15 2.15 0 01-1.46-.42 2 2 0 01-.53-.44 1 1 0 00-.34-.27s.75 4.1 2.56 4.74 2.14-.75 2.2-1.13a5.59 5.59 0 00-.82-3.22c0-.3 0-.1-.13-.23"/><path d="M34.15 22.58a3.46 3.46 0 01-2.33-1.42A.14.14 0 1132 21a3.23 3.23 0 002.1 1.3 2.09 2.09 0 001.63-1l.14-.19.13.21a1.44 1.44 0 001 .79 2.16 2.16 0 001.62-1.28.14.14 0 11.24.16c-.63 1-1.26 1.45-1.88 1.41a1.55 1.55 0 01-1.12-.76 2.25 2.25 0 01-1.72.94"/><path class="cls-6" d="M41.05 29.21l-3.12 1.3 1.14-5.61-7.47 9.72 3.12-1.3-1.15 5.61zM33.7 33l4.11-5.39-.8 4 2-.82-4.11 5.38.8-4z"/><path class="cls-4" d="M45.68 18.92a58.14 58.14 0 00-5.06 5.19A31.65 31.65 0 0135.33 29a6.7 6.7 0 00-1.62-1.51s-3.13-2.14-5.18-3.82a33 33 0 01-3.12-3l-2-.11a22.54 22.54 0 0012 8.8c.86-.14 3.28-1.86 5.07-3.26a57.49 57.49 0 005.94-5.89 6.08 6.08 0 001.13-2c-1.11.38-1.83.71-1.83.71M25.81 25.7s-3.81-1.44-5.18-1.82a3.72 3.72 0 00-4 .62 5.06 5.06 0 00-1.73 3.84 6.92 6.92 0 01.48 1.44c0 .48-1.2.43-2 .43s-.91-1.44-.29-3.12A23.53 23.53 0 0115 23.4c-5.45 2.83-15 9.35-15 9.35a45.8 45.8 0 018.16.25c5.23.53 4.94 4.65 4.94 4.65a38 38 0 015.61-1.1 2.16 2.16 0 012.29 2.1l.53 3.84a18.8 18.8 0 012.64-2.35 6 6 0 014.37-1.3z"/><path class="cls-6" d="M89.56 37.12a5.91 5.91 0 01-1-3.69v-5.34a6 6 0 011-3.73 5.2 5.2 0 016.61-.15 4.8 4.8 0 01.95 3.19v1.25h-2.96v-1.37a7.22 7.22 0 00-.06-1.07 1.2 1.2 0 00-.33-.67 1.12 1.12 0 00-.82-.27 1 1 0 00-1.07.53 4 4 0 00-.24 1.57v6.77a3.43 3.43 0 00.28 1.56 1.06 1.06 0 001 .52 1 1 0 001-.53 4.2 4.2 0 00.22-1.55v-1.45h2.96v1.23a5.16 5.16 0 01-.94 3.3 3.94 3.94 0 01-3.24 1.17 4 4 0 01-3.37-1.28m11.57-13.82h3.37l2.87 14.91h-2.8l-.56-3.28h-2.36l-.57 3.28h-2.84zm2.6 9.75l-.9-6-.88 6h1.79zm5.79-7.5h-2.3v-2.25h7.62v2.25h-2.27V38.2h-3.05V25.54z"/><path d="M120.81 23.29h5.77v1.55h-3.69v4.93h3v1.47h-3v5.47h3.73v1.49h-5.81V23.29zm7.49 0h1.42l4.23 9.9v-9.9h1.73V38.2h-1.33l-4.29-10.18V38.2h-1.76V23.29zm9.71 0h5.78v1.55h-3.7v4.93h3v1.47h-3v5.47h3.74v1.49h-5.82V23.29zm7.5 0h3a5 5 0 013.32.93 3.84 3.84 0 011.06 3q0 2.87-1.84 3.48l2.12 7.47h-2l-2-7h-1.62v7h-2.08V23.29zm2.87 6.42a2.8 2.8 0 001.92-.53 2.57 2.57 0 00.58-1.93 4.13 4.13 0 00-.2-1.44A1.39 1.39 0 00150 25a3.44 3.44 0 00-1.45-.25h-.92v4.93h.79zm7.3 7.39a6.6 6.6 0 01-.9-3.8v-5a9.45 9.45 0 01.36-2.84 3.18 3.18 0 011.23-1.71 4.2 4.2 0 012.4-.6 3.75 3.75 0 013 1 5 5 0 01.91 3.29v.55h-2v-.39a8.13 8.13 0 00-.13-1.65 1.39 1.39 0 00-.54-.87 2.11 2.11 0 00-1.22-.3 1.63 1.63 0 00-1.79 1.46 10.24 10.24 0 00-.12 1.77v5.52a5.36 5.36 0 00.41 2.46 1.66 1.66 0 001.59.75 1.64 1.64 0 001.59-.81 5.81 5.81 0 00.43-2.59v-1H159v-1.52h3.77v7.38h-1.31l-.2-1.71a2.62 2.62 0 01-2.65 1.9 3.33 3.33 0 01-2.93-1.28m11.39-4.18l-3.22-9.64h1.93l2.29 7.2 2.24-7.2h1.95l-3.2 9.64v5.27h-1.99v-5.27z" fill="#444"/></g></svg>