<svg id="Слой_1" data-name="Слой 1" xmlns="http://www.w3.org/2000/svg" viewBox="0 0 33.32 37.61"><defs><clipPath id="clip-path"><path fill="none" d="M0 0h33.32v37.61H0z"/></clipPath><style>.cls-4{fill:#f06351}</style></defs><g clip-path="url(#clip-path)"><path d="M6.07 20.72l.05-2.27a143.63 143.63 0 0120.16-1.33q0 .91-.06 1.82a25.46 25.46 0 016-1.81A16.67 16.67 0 00.19 20.38c2.17.14 5.88.34 5.88.34m21.17 3.51c-1.16 1.28-1.39 1.2-1.39 3.46v9.17A16.68 16.68 0 0033 19.9a33.65 33.65 0 00-5.8 4.33M6.36 25.72s-3.79-1.44-5.18-1.82A10.62 10.62 0 000 23.61a16.66 16.66 0 008.68 14z" fill="#fdc305"/><path class="cls-4" d="M26.29 17.12A90.16 90.16 0 0024.89.65S24.75-.64 24 .41a14.18 14.18 0 00-1.2 3.94 70.3 70.3 0 00-12.77.33C9.24 2 7.85.75 7.18 1s-.72 3.35-.72 3.35l-.33 14.1a143.62 143.62 0 0120.17-1.33"/><path d="M12.41 14c0-.09 1 .68 1.41.92a1.07 1.07 0 01.61.59.56.56 0 01-.62.34 1.48 1.48 0 01-1-.26h1.23A8.24 8.24 0 0112.41 14m7.48.11s-1 1.27-1.09 1.33-.17.34.18.29a7.94 7.94 0 001.22-.28c.11-.06.07-.2-.12-.18s-.68 0-1 .11l.84-1.26s0-.12-.06 0m-3.11 6.08a2.3 2.3 0 001.09-1c.28-.66 0-.91-.44-1a2.44 2.44 0 00-1.74.34.57.57 0 00-.05 1 5 5 0 001.14.69"/><path class="cls-4" d="M16.35 21.45a2 2 0 01-.46.59 1.72 1.72 0 01-1 .39 2.16 2.16 0 01-1.47-.43 2.11 2.11 0 01-.53-.44.94.94 0 00-.36-.25s.75 4.1 2.57 4.75 2.14-.75 2.2-1.13a5.6 5.6 0 00-.82-3.22c0-.3 0-.1-.13-.23"/><path d="M14.71 22.59a3.46 3.46 0 01-2.33-1.42.14.14 0 11.21-.17 3.23 3.23 0 002.1 1.3 2.08 2.08 0 001.63-1l.14-.19.1.21a1.45 1.45 0 001 .8 2.17 2.17 0 001.62-1.28.14.14 0 11.24.16c-.63 1-1.26 1.45-1.88 1.41a1.54 1.54 0 01-1.12-.76 2.25 2.25 0 01-1.72.94"/><path class="cls-4" d="M26.24 18.92a58.19 58.19 0 00-5.06 5.19 31.62 31.62 0 01-5.3 4.89 6.7 6.7 0 00-1.62-1.51s-3.13-2.14-5.18-3.82a33.13 33.13 0 01-3.13-3l-2-.11a22.55 22.55 0 0012 8.8c.86-.14 3.28-1.86 5.08-3.26a57.53 57.53 0 005.94-5.89 6.07 6.07 0 001.14-2c-1.11.38-1.83.71-1.83.71"/></g></svg>