<svg id="Слой_1" data-name="Слой 1" xmlns="http://www.w3.org/2000/svg" viewBox="0 0 201.99 59.48"><defs><clipPath id="clip-path"><path fill="none" d="M0 0h201.99v59.48H0z"/></clipPath><style>.cls-3{fill:#fdc305}.cls-4{fill:#f06351}.cls-6{fill:#111}</style></defs><g clip-path="url(#clip-path)"><path class="cls-3" d="M59.88 24a25.61 25.61 0 10-27.37 35.2c-.58-2.09-1.16-4.4-1.69-6.85a32.77 32.77 0 004.77 2.56s.12 2.16.28 4.57a25.44 25.44 0 005.32-.48 2 2 0 010-.76c.29-1.86 1.09-5.24 1.25-7.41a15.25 15.25 0 002.9-3.71l-.06.43c-.55 4.26-1.7 8.81-2.4 10.07a5.78 5.78 0 01-.83 1.15A25.63 25.63 0 0059.88 24m-1.48 3.79c-.43.43-1.35.72-1.49-.58S56.72 25 56.72 25s-1.93-3.42-2.65-3.47-5.83 3.47-7.18 5c-1.17 1.29-1.4 1.2-1.4 3.47 0 1.71.22 8.17.1 13.11l-8.15 2.17a64.84 64.84 0 01-7.8 1.72l-1-5.83h-.14L25.93 28s-3.81-1.45-5.2-1.83a3.74 3.74 0 00-4 .63 5.08 5.08 0 00-1.74 3.85 6.88 6.88 0 01.48 1.45c0 .48-1.2.43-2 .43s-.92-1.45-.29-3.13A23.64 23.64 0 0115 25.66a11.91 11.91 0 012.07-2.89s.14-.34 1.25-.24 7.32.47 7.32.47l.05-2.28a144.29 144.29 0 0120.24-1.34q0 .91-.06 1.83a22.64 22.64 0 018.14-2 .91.91 0 01.77.39c.34.43 2.41 3 2.65 3.37a28.43 28.43 0 011.83 3 6.27 6.27 0 01-.87 1.78"/><path class="cls-4" d="M56.46 21.67c.47.6.89 1.13 1 1.29a27.89 27.89 0 011.83 3 6.25 6.25 0 01-.87 1.78c-.43.43-1.35.72-1.49-.58S56.72 25 56.72 25s-1.93-3.42-2.65-3.47-5.83 3.47-7.18 5c-1.17 1.29-1.4 1.2-1.4 3.47 0 1.5.17 6.65.13 11.23 1.81.21 4.47.71 5.27 1.88 0 0-.29-7.18 7.81-3.42 0 0 .29-9.78 11.47-7.28a43.78 43.78 0 00-13.71-10.74m-10.53-2.32a90.49 90.49 0 00-1.4-16.53s-.15-1.3-.87-.24a14.21 14.21 0 00-1.2 4 70.66 70.66 0 00-12.82.34c-.82-2.75-2.22-4-2.89-3.66S26 6.53 26 6.53l-.31 14.16a144.29 144.29 0 0120.24-1.34"/><path d="M45.35 47.12c.13-1.06.2-2.48.24-4.06l-8.15 2.17a65.06 65.06 0 01-7.8 1.77l1.11 5 .07.33a32.67 32.67 0 004.77 2.55 42.61 42.61 0 006.87-4.13v.06a15.27 15.27 0 002.9-3.71" fill="#e55645"/><path d="M32 16.22c0-.09 1 .68 1.41.92a1.08 1.08 0 01.61.59.56.56 0 01-.63.34 1.48 1.48 0 01-1-.27h1.23A8.28 8.28 0 0132 16.22m7.5.11s-1.05 1.28-1.09 1.34-.17.33.19.33a8 8 0 001.22-.28c.11-.06.07-.2-.12-.18s-.68 0-1 .11l.84-1.26s0-.12-.06 0m-3.12 6.05a2.32 2.32 0 001.09-1c.28-.66 0-.92-.44-1a2.45 2.45 0 00-1.74.34.57.57 0 00-.05 1 5 5 0 001.15.7"/><path class="cls-4" d="M35.95 23.7a2 2 0 01-.46.6 1.74 1.74 0 01-1 .39 2.16 2.16 0 01-1.49-.45 2.09 2.09 0 01-.53-.44 1 1 0 00-.36-.25s.75 4.12 2.58 4.77 2.15-.75 2.21-1.14a5.62 5.62 0 00-.82-3.24c0-.3 0-.1-.13-.23"/><path d="M34.3 24.84a3.47 3.47 0 01-2.34-1.42.14.14 0 11.23-.17 3.25 3.25 0 002.11 1.31 2.1 2.1 0 001.63-1l.14-.19.1.21a1.45 1.45 0 001 .8 2.17 2.17 0 001.62-1.28.14.14 0 01.24.16c-.64 1-1.27 1.45-1.88 1.41A1.55 1.55 0 0136 23.9a2.26 2.26 0 01-1.73.94"/><path class="cls-3" d="M32.8 36a3.75 3.75 0 114.91 2 3.75 3.75 0 01-4.91-2"/><path class="cls-6" d="M41.23 31.5l-3.13 1.31 1.15-5.64-7.5 9.76 3.13-1.31-1.15 5.64zm-7.39 3.82l4.16-5.4-.81 4 2-.82L35 38.52l.81-4zm-2.44-2.14a1.12 1.12 0 111.47.6 1.12 1.12 0 01-1.47-.6m6.83 4.26a.79.79 0 111 .43.79.79 0 01-1-.43m1.37-1.91a.35.35 0 11.45.19.35.35 0 01-.45-.19"/><path class="cls-4" d="M45.88 21.16a58.41 58.41 0 00-5.08 5.21 31.77 31.77 0 01-5.31 4.89 6.73 6.73 0 00-1.63-1.51s-3.14-2.15-5.2-3.84a33.15 33.15 0 01-3.14-3l-2-.11a22.64 22.64 0 0012 8.84c.87-.14 3.29-1.87 5.1-3.27a57.8 57.8 0 006-5.92 6.1 6.1 0 001.14-2c-1.11.38-1.84.71-1.84.71"/><path class="cls-3" d="M65.22 3.5l-8.46 9.44-1.22-2L63.69 0l1.53 3.5zm-2.57 13.76l5.54-4.11-.78-3.74L62 14.22l.65 3.04zm-2.73 32.11l6.13 3.18 3.01-2.34-6.69-2.75-2.45 1.91zM1.95 5.97l3.07-3.36 9.29 9-1.22 2.28L1.95 5.97zm5.43 10.31l-4.7-3.13-2.4 3.86 5.15 2.41 1.95-3.14zm6.53 36.27L9.36 55.9l2.8 3.58 4.02-4.02-2.27-2.91z"/><path class="cls-4" d="M25.93 28s-3.81-1.45-5.2-1.83a3.74 3.74 0 00-4 .63A5.08 5.08 0 0015 30.65a6.94 6.94 0 01.48 1.45c0 .48-1.2.43-2 .43s-.92-1.45-.29-3.13A23.7 23.7 0 0115 25.66c-5.45 2.84-15 9.4-15 9.4a45.91 45.91 0 018.19.24c5.25.53 5 4.67 5 4.67a38.11 38.11 0 015.64-1.11A2.17 2.17 0 0121.06 41l.53 3.85a18.84 18.84 0 012.65-2.36 6.07 6.07 0 014.39-1.3z"/><path class="cls-6" d="M85.66 42a8.32 8.32 0 01-1.4-5.19v-7.47a8.41 8.41 0 011.39-5.24q1.39-1.77 4.75-1.77 3.21 0 4.54 1.57a6.75 6.75 0 011.33 4.49v1.76h-4.14V28.2a10 10 0 00-.13-1.5 1.67 1.67 0 00-.47-.94 1.57 1.57 0 00-1.15-.37 1.47 1.47 0 00-1.5.75 5.6 5.6 0 00-.34 2.2v9.53a4.82 4.82 0 00.39 2.2 1.49 1.49 0 001.45.73 1.35 1.35 0 001.4-.74 5.93 5.93 0 00.31-2.19v-2h4.14v1.74A7.24 7.24 0 0195 42.19q-1.32 1.65-4.56 1.64T85.66 42m16.25-19.42h4.74l4 21h-3.94l-.71-4.64h-3.31l-.8 4.61h-4zm3.65 13.72l-1.27-8.44-1.24 8.44h2.51zm8.16-10.56h-3.24v-3.16h10.72v3.16h-3.19v17.81h-4.29V25.74z"/><path d="M129.61 22.58h8.13v2.18h-5.2v6.93h4.22v2.07h-4.22v7.69h5.25v2.1h-8.18V22.58zm10.54 0h1.99l5.95 13.93V22.58h2.44v20.97h-1.87l-6.03-14.32v14.32h-2.48V22.58zm13.66 0h8.13v2.18h-5.2v6.93h4.22v2.07h-4.22v7.69H162v2.1h-8.19V22.58zm10.54 0h4.22a7 7 0 014.67 1.31 5.4 5.4 0 011.49 4.26q0 4-2.59 4.89l3 10.51h-2.84l-2.74-9.84h-2.28v9.84h-2.92v-21zm4 9a3.94 3.94 0 002.7-.75 3.62 3.62 0 00.82-2.72 5.8 5.8 0 00-.29-2 2 2 0 00-1-1.09 4.82 4.82 0 00-2-.35h-1.3v6.94h1.11zM178.67 42a9.28 9.28 0 01-1.27-5.34v-7a13.31 13.31 0 01.51-4 4.47 4.47 0 011.74-2.41 5.9 5.9 0 013.35-.85 5.27 5.27 0 014.18 1.47 7 7 0 011.28 4.63v.78h-2.75v-.64a11.49 11.49 0 00-.18-2.32 2 2 0 00-.76-1.23 3 3 0 00-1.72-.41 2.3 2.3 0 00-2.57 2 14.5 14.5 0 00-.17 2.49V37a7.56 7.56 0 00.58 3.46 2.34 2.34 0 002.24 1 2.31 2.31 0 002.24-1.14 8.17 8.17 0 00.61-3.65v-1.43h-2.67v-2.07h5.31v10.38h-1.82l-.29-2.41a3.69 3.69 0 01-3.73 2.67 4.69 4.69 0 01-4.12-1.8m16.03-5.86l-4.53-13.57h2.72l3.21 10.12 3.16-10.12h2.74l-4.5 13.57v7.4h-2.8v-7.4z" fill="#444"/></g></svg>