<svg xmlns="http://www.w3.org/2000/svg" xmlns:xlink="http://www.w3.org/1999/xlink"><defs><style>.cls-1{fill:none;}.cls-2{clip-path:url(#clip-path);}.cls-3{fill:#231f20;}</style><clipPath id="clip-path" transform="translate(0 0)"><rect class="cls-1" width="16" height="16.01"/></clipPath><style>.cls-1{fill:none;}.cls-2{clip-path:url(#clip-path);}</style><clipPath id="clip-path" transform="translate(0 0)"><rect class="cls-1" width="19.95" height="19.92"/></clipPath><style>.cls-1{fill:none;}.cls-2{clip-path:url(#clip-path);}</style><clipPath id="clip-path" transform="translate(0 0)"><rect class="cls-1" width="22" height="12"/></clipPath></defs><symbol id="icon-fb-m" viewBox="0 0 10 19"><title>icon-fb-m</title><path d="M7.05,19H2V10.16H0V5.8H1.94A5.64,5.64,0,0,1,3.07,1.39,4.75,4.75,0,0,1,6.46,0H10V4.21H7.22A4.08,4.08,0,0,0,7,5.8H10v4.37H7.05V19ZM3.12,18H5.94V9.14H8.87V6.83H5.94V6.32c0-1.4,0-2.59.74-3.05l0.14-.09H8.89V1H6.49a3.59,3.59,0,0,0-2.58,1c-0.77.84-1,2.26-.81,4.21L3.17,6.83H1.11V9.14h2V18Z"/></symbol><symbol id="icon-htmla" viewBox="0 0 26.95 34.09"><title>icon-htmla</title><path d="M13.62,0L13.47,0,0,1.41V26.07l13.47,8,13.43-8,0,0V1.41ZM25,12.13L13.5,5.33V5.23l-0.09,0-0.09-.06V5.33L1.92,12.12v-9L13.47,1.93,25,3.15v9h0ZM13.41,6.79L24.92,13.5l-4.48,2.64-7.09-4.22v1.42l5.9,3.51-0.86.51-5-3v1.41l3.83,2.27-0.78.52-3-1.79V18.2l1.85,1.09-1.8,1.08L2,13.62ZM1.92,15.13l11.41,6.79,0,1L5.41,18.23v1.42l8,4.79,0,1.08-8-4.74V22.2l8,4.82,0,0,8.14-4.87V17L25,15V25L13.47,31.85,1.92,25V15.13Z"/></symbol><symbol id="icon-inst-m" viewBox="0 0 16 16.01"><title>icon-instagram-m</title><g class="cls-2"><path class="cls-3" d="M11.83,1A3.14,3.14,0,0,1,15,4.18v7.66A3.13,3.13,0,0,1,11.83,15H4.17A3.14,3.14,0,0,1,1,11.83V4.18A3.14,3.14,0,0,1,4.17,1h7.65m0-1H4.17A4.19,4.19,0,0,0,0,4.18v7.66A4.19,4.19,0,0,0,4.17,16h7.65A4.19,4.19,0,0,0,16,11.83V4.18A4.19,4.19,0,0,0,11.83,0" transform="translate(0 0)"/><path class="cls-3" d="M8,4.93A3.08,3.08,0,1,1,4.92,8,3.09,3.09,0,0,1,8,4.93m0-1A4.13,4.13,0,1,0,12.12,8,4.13,4.13,0,0,0,8,3.88" transform="translate(0 0)"/><path class="cls-3" d="M12.27,2.81a0.93,0.93,0,1,1-.93.93,0.93,0.93,0,0,1,.93-0.93" transform="translate(0 0)"/></g></symbol><symbol id="icon-mail" viewBox="0 0 17 13"><title>icon-mail</title><path d="M15.6,5.8v5.8H1.4V5.8H0V13H17V5.8H15.6ZM1.4,1.6V1.4H15.6V1.6L8.5,7.5ZM0,0V2.3L8.5,9.4,17,2.3V0H0Z" transform="translate(0 0)"/></symbol><symbol id="icon-phone" viewBox="0 0 19.96 19.93"><title>icon-phone</title><g class="cls-2"><path d="M17.91,9.41H9.41v1.2h8.5l-2.1,2.1,0.9,0.9,3.1-3.1a0.74,0.74,0,0,0,0-.9l-3.1-3.1-0.9.9Z" transform="translate(0 0)"/><path d="M8.11,19.41v-6.2a0.65,0.65,0,0,0-.6-0.6H3.11a1.22,1.22,0,0,0,1.2,1.2h2.5v5H3.11a1.79,1.79,0,0,1-1.9-1.7v-14a1.77,1.77,0,0,1,1.7-1.8h3.9v5H4.41a1.22,1.22,0,0,0-1.2,1.2h4.4a0.65,0.65,0,0,0,.6-0.6V0.61A0.86,0.86,0,0,0,7.51,0H3.11A3,3,0,0,0,0,2.91v13.9a2.89,2.89,0,0,0,2.9,3.1h4.6a0.5,0.5,0,0,0,.6-0.5" transform="translate(0 0)"/></g></symbol><symbol id="icon-vk-m" viewBox="0 0 22 12"><title>icon-vk-mobile</title><g class="cls-2"><path d="M17.55,12A2.89,2.89,0,0,1,16,11.52a7.26,7.26,0,0,1-1.31-1.17,3.52,3.52,0,0,0-1.06-.9,1.63,1.63,0,0,0-.35,1.19,1.32,1.32,0,0,1-.34.92,1.63,1.63,0,0,1-.89.38H10.67a8.14,8.14,0,0,1-5.45-2.3C2.53,7.1.21,2.2,0.11,2A1.06,1.06,0,0,1,.22.86a1.46,1.46,0,0,1,1-.36l3,0H4.3A1.88,1.88,0,0,1,5,.75a1.37,1.37,0,0,1,.46.56,17.36,17.36,0,0,0,1.08,2,6.23,6.23,0,0,0,1.54,2,6.48,6.48,0,0,0,.14-2.19,2.09,2.09,0,0,0-.19-1,1,1,0,0,0-.57-0.22L6.93,1.39A1.25,1.25,0,0,1,7.78.29,6,6,0,0,1,10.08,0H10.6a6.49,6.49,0,0,1,1.58.15c1.25,0.27,1.2,1.32,1.15,2.52,0,0.35,0,.76,0,1.23,0,0.12,0,.24,0,0.36a3.13,3.13,0,0,0,.07,1,7,7,0,0,0,1.52-1.89A15.62,15.62,0,0,0,16,1.24h0A1.16,1.16,0,0,1,17.17.52l3.13,0h0.28a1.28,1.28,0,0,1,1.34.65c0.2,0.49.12,1.26-1.73,3.51l-0.72.86a5.61,5.61,0,0,0-.91,1.21,5,5,0,0,0,.92.87,10.77,10.77,0,0,1,2.22,2.34,1.25,1.25,0,0,1,.19,1.28,1.65,1.65,0,0,1-1.38.75l-2.78,0H17.55M13.66,8.31A3,3,0,0,1,15.5,9.55a6.55,6.55,0,0,0,1.1,1,1.77,1.77,0,0,0,1,.31H17.7l2.79,0a1.25,1.25,0,0,0,.39-0.1l-0.07-.13a9.81,9.81,0,0,0-2-2.07C18,7.78,17.52,7.4,17.47,6.8s0.36-1.1,1.18-2.06l0.71-.84a8.07,8.07,0,0,0,1.51-2.25,3.82,3.82,0,0,0-.5,0l-3.2,0a0.37,0.37,0,0,0-.18,0A15.77,15.77,0,0,1,15.79,4c-1.39,2.15-2,2.44-2.5,2.44a0.81,0.81,0,0,1-.42-0.11,2.17,2.17,0,0,1-.69-2.1c0-.11,0-0.23,0-0.33,0-.49,0-0.92,0-1.29,0.06-1.28,0-1.29-.28-1.35a5.49,5.49,0,0,0-1.36-.12H10.08a9.87,9.87,0,0,0-1.4.07,1.32,1.32,0,0,1,.19.19,3,3,0,0,1,.44,1.67c0.1,1.25,0,2.89-.75,3.28a1,1,0,0,1-.44.1C7.45,6.47,6.77,5.79,5.62,4a17.56,17.56,0,0,1-1.16-2.2L4.4,1.71a0.83,0.83,0,0,0-.24-0.09l-2.93,0H1.18C1.62,2.55,3.69,6.66,6,8.82a7.14,7.14,0,0,0,4.7,2H12a0.84,0.84,0,0,0,.2-0.08s0,0,0-.07c0-.2,0-2,1.16-2.31a1.06,1.06,0,0,1,.29,0" transform="translate(0 0)"/></g></symbol></svg>